<svg version="1.1" xmlns="http://www.w3.org/2000/svg" style="display: block;" viewBox="150 915 1745 285" preserveAspectRatio="xMidYMid meet">

<path transform="translate(0,0)" fill="rgb(253,253,252)" d="M 495.294 940.355 C 538.42 936.12 569.386 951.853 595.041 985.617 L 594.755 944.114 L 636.136 943.992 L 636.284 1180.77 C 622.643 1181.15 608.02 1180.95 594.304 1180.99 L 594.048 1140.9 C 588.515 1148.78 584.969 1152.67 578.221 1159.44 C 536.692 1195.45 476.976 1195.96 433.253 1163.19 C 379.322 1122.77 370.628 1037 411.923 984.735 C 433.907 956.91 460.633 944.609 495.294 940.355 z"></path>
<path transform="translate(0,0)" fill="rgb(0,0,0)" d="M 498.474 980.095 C 544.482 972.751 587.748 1004.05 595.168 1050.05 C 602.589 1096.04 571.361 1139.36 525.377 1146.86 C 479.285 1154.37 435.843 1123.06 428.405 1076.95 C 420.967 1030.85 452.357 987.456 498.474 980.095 z"></path>
<path transform="translate(0,0)" fill="rgb(253,253,252)" d="M 1737.74 940.346 C 1781.02 937.327 1811.67 949.588 1837.18 984.939 C 1837.52 971.269 1837.72 957.595 1837.79 943.921 L 1879.25 943.843 C 1880.04 1022.13 1879.1 1102.53 1879.06 1180.91 C 1865.26 1181.22 1850.71 1180.99 1836.85 1180.99 L 1836.87 1141.1 C 1832.04 1147.27 1828.07 1152.15 1822.82 1157.94 C 1805.6 1173.85 1787.76 1182.57 1764.34 1185.84 C 1733.47 1190.41 1702.05 1182.41 1677.14 1163.62 C 1606.15 1109.7 1616.23 986.103 1699.57 950.2 C 1713.31 944.281 1722.94 942.345 1737.74 940.346 z"></path>
<path transform="translate(0,0)" fill="rgb(0,0,0)" d="M 1749.84 979.12 C 1796.31 976.101 1836.47 1011.23 1839.67 1057.69 C 1842.87 1104.15 1807.89 1144.44 1761.45 1147.82 C 1714.75 1151.21 1674.18 1116.01 1670.97 1069.3 C 1667.75 1022.58 1703.11 982.155 1749.84 979.12 z"></path>
<path transform="translate(0,0)" fill="rgb(253,253,252)" d="M 1752.99 1004.59 C 1754.5 1004.74 1757.89 1004.7 1758.57 1005.74 C 1774.27 1029.52 1787.68 1057.25 1802.09 1082.09 C 1804.37 1086.02 1805.8 1091.59 1806.32 1094.9 L 1805.05 1096.44 C 1796.28 1099.6 1769.43 1098.41 1758.5 1098.32 C 1745.26 1098.4 1721.83 1099.25 1708.45 1097.51 C 1706.3 1097.24 1705.48 1094.75 1704.64 1092.95 C 1704.48 1087.07 1746.57 1013.54 1752.99 1004.59 z"></path>
<path transform="translate(0,0)" fill="rgb(253,253,252)" d="M 1241.08 938.324 C 1310.01 931.591 1371.36 981.981 1378.15 1050.91 C 1384.95 1119.84 1334.61 1181.23 1265.68 1188.08 C 1196.68 1194.93 1135.2 1144.52 1128.4 1075.51 C 1121.6 1006.51 1172.06 945.066 1241.08 938.324 z"></path>
<path transform="translate(0,0)" fill="rgb(0,0,0)" d="M 1247 978.807 C 1293.87 975.38 1334.59 1010.74 1337.77 1057.63 C 1340.95 1104.52 1305.38 1145.05 1258.47 1147.99 C 1211.91 1150.9 1171.75 1115.65 1168.59 1069.11 C 1165.43 1022.56 1200.47 982.209 1247 978.807 z"></path>
<path transform="translate(0,0)" fill="rgb(253,253,252)" d="M 810.371 940.308 C 852.317 936.322 882.61 950.984 901.405 988.672 C 939.548 921.216 1061.12 920.191 1079.95 1003.51 C 1086.46 1032.31 1084.71 1064.21 1084.68 1093.86 L 1084.81 1180.82 L 1042.31 1180.96 L 1042.09 1087.9 C 1042.03 1066.06 1043.34 1041.98 1038.95 1020.79 C 1028.4 970.417 963.379 966.341 931.779 998.441 C 904.331 1026.32 910.578 1069.23 910.656 1105.75 L 910.761 1180.93 C 896.908 1181.1 882.805 1180.97 868.929 1180.99 L 868.809 1090.16 C 868.782 1060.62 872.948 1014.01 850.967 993.493 C 816.53 961.351 752.218 982.134 743.963 1029.46 C 739.932 1052.58 740.658 1069.55 740.513 1091.93 C 740.358 1121.56 740.384 1151.19 740.592 1180.83 C 726.648 1181.14 712.05 1180.94 698.054 1180.95 L 697.922 944.466 C 711.253 944.016 725.661 944.32 739.091 944.388 C 739.174 957.167 739.653 970.373 739.958 983.184 C 741.968 980.253 744.047 977.37 746.192 974.536 C 763.047 952.177 783.717 944.138 810.371 940.308 z"></path>
<path transform="translate(0,0)" fill="rgb(253,253,252)" d="M 1493.4 940.361 C 1526.28 937.689 1568.95 946.409 1594.12 969.03 C 1588.84 979.225 1581.08 991.682 1575.13 1001.79 C 1556.41 988.263 1532.2 977.574 1508.76 976.871 C 1498.4 975.929 1472.08 978.451 1465.7 987.985 C 1443.01 1021.85 1479.01 1033.64 1500.37 1039.36 C 1530.32 1047.37 1560.09 1053.52 1581.52 1072.21 C 1606.18 1093.7 1601.65 1139.85 1579.78 1161.33 C 1559.34 1181.85 1530.87 1186.34 1503.04 1186.65 C 1463.91 1184.79 1437.63 1176.3 1406.9 1151.82 L 1428.06 1117.73 C 1430.17 1119.54 1432.32 1121.28 1434.53 1122.95 C 1460.58 1142.41 1488.88 1152.49 1521.71 1148.08 C 1532.06 1146.71 1545.09 1142.35 1550.96 1133.46 C 1559.91 1120.28 1556.59 1102.48 1541.78 1094.68 C 1500.83 1073.12 1424.8 1078.6 1417.2 1019.12 C 1413.5 990.084 1426.12 963.955 1452.36 951.048 C 1466.1 944.286 1478.22 942.149 1493.4 940.361 z"></path>
<path transform="translate(0,0)" fill="rgb(253,253,252)" d="M 251.563 940.36 C 285.823 937.509 325.014 946.561 351.706 969.028 C 345.333 980.006 339.076 991.059 332.153 1001.7 C 305.73 983.637 254.607 962.86 223.033 988.048 C 211.952 996.889 215.059 1020.48 227.214 1027.78 C 236.153 1033.15 245.795 1036.78 256.171 1039.08 C 294.574 1050.52 354.329 1057.8 355.01 1109.77 C 355.284 1129.12 351.315 1146.33 337.445 1160.6 C 316.887 1181.75 289.453 1186.13 261.194 1186.53 C 224.272 1185.47 192.868 1176.28 164.334 1152.14 C 170.614 1140.76 178.487 1128.69 185.678 1117.9 C 214.993 1142.02 270.977 1166.11 307.327 1134.72 C 311.782 1130.87 313.9 1119.38 312.774 1113.63 C 306.986 1084.11 256.369 1083.69 233.234 1074.01 C 219.367 1069.82 207.2 1064.66 195.437 1056.04 C 169.094 1036.73 167.243 993.952 187.293 969.255 C 203.754 948.979 226.321 943.267 251.563 940.36 z"></path>
</svg>